<svg width="128" height="128" viewBox="0 0 128 128" fill="none" xmlns="http://www.w3.org/2000/svg">
  <!-- Background circle -->
  <circle cx="64" cy="64" r="60" fill="#956D37" opacity="0.1"/>
  
  <!-- Heart shape representing intention -->
  <path d="M64 40C64 40 72 32 80 40C88 48 88 64 64 88C40 64 40 48 48 40C56 32 64 40 64 40Z" fill="#956D37"/>
  
  <!-- Inner heart -->
  <path d="M64 48C64 48 70 42 76 48C82 54 82 66 64 80C46 66 46 54 52 48C58 42 64 48 64 48Z" fill="#DDC00F"/>
  
  <!-- Dots representing thoughts/intention -->
  <circle cx="40" cy="50" r="3" fill="#956D37"/>
  <circle cx="88" cy="50" r="3" fill="#956D37"/>
  <circle cx="45" cy="85" r="2" fill="#956D37"/>
  <circle cx="83" cy="85" r="2" fill="#956D37"/>
  
  <!-- Text "Niyyah" -->
  <text x="64" y="110" text-anchor="middle" font-family="Arial, sans-serif" font-size="12" font-weight="bold" fill="#956D37">Niyyah</text>
</svg> 