<svg width="64" height="64" viewBox="0 0 64 64" fill="none" xmlns="http://www.w3.org/2000/svg">
  <!-- Background Circle -->
  <circle cx="32" cy="32" r="30" fill="url(#bgGradient)" stroke="url(#borderGradient)" stroke-width="2"/>
  
  <!-- Crescent Moon -->
  <path d="M 20 32 A 12 12 0 1 1 44 32 A 12 12 0 1 1 20 32" fill="url(#moonGradient)" opacity="0.9"/>
  <path d="M 24 32 A 8 8 0 1 1 40 32 A 8 8 0 1 1 24 32" fill="url(#bgGradient)"/>
  
  <!-- Star -->
  <path d="M 32 12 L 34 20 L 42 20 L 36 25 L 38 33 L 32 28 L 26 33 L 28 25 L 22 20 L 30 20 Z" fill="url(#starGradient)"/>
  
  <!-- Central Islamic Symbol -->
  <g transform="translate(32, 32)">
    <!-- Hexagon -->
    <polygon points="0,-8 7,-4 7,4 0,8 -7,4 -7,-4" fill="none" stroke="url(#accentGradient)" stroke-width="1.5" opacity="0.8"/>
    
    <!-- Inner Star -->
    <path d="M 0,-5 L 1.5,-2.5 L 4.5,-2.5 L 2,-1 L 3,2 L 0,0.5 L -3,2 L -2,-1 L -4.5,-2.5 L -1.5,-2.5 Z" fill="url(#starGradient)" opacity="0.9"/>
  </g>
  
  <!-- Gradients -->
  <defs>
    <radialGradient id="bgGradient" cx="50%" cy="50%" r="50%">
      <stop offset="0%" style="stop-color:#10B981;stop-opacity:1" />
      <stop offset="100%" style="stop-color:#059669;stop-opacity:1" />
    </radialGradient>
    
    <linearGradient id="borderGradient" x1="0%" y1="0%" x2="100%" y2="100%">
      <stop offset="0%" style="stop-color:#34D399;stop-opacity:1" />
      <stop offset="100%" style="stop-color:#10B981;stop-opacity:1" />
    </linearGradient>
    
    <linearGradient id="moonGradient" x1="0%" y1="0%" x2="100%" y2="0%">
      <stop offset="0%" style="stop-color:#FCD34D;stop-opacity:0.9" />
      <stop offset="100%" style="stop-color:#F59E0B;stop-opacity:0.9" />
    </linearGradient>
    
    <linearGradient id="starGradient" x1="0%" y1="0%" x2="100%" y2="100%">
      <stop offset="0%" style="stop-color:#FCD34D;stop-opacity:1" />
      <stop offset="100%" style="stop-color:#F59E0B;stop-opacity:1" />
    </linearGradient>
    
    <linearGradient id="accentGradient" x1="0%" y1="0%" x2="100%" y2="100%">
      <stop offset="0%" style="stop-color:#6EE7B7;stop-opacity:0.8" />
      <stop offset="100%" style="stop-color:#34D399;stop-opacity:0.8" />
    </linearGradient>
  </defs>
</svg>
